<svg width="28" height="28" viewBox="0 0 28 28" fill="none" xmlns="http://www.w3.org/2000/svg">
<path d="M19.7204 9.27978H18.5604V7.08734C18.5604 5.85672 18.0715 4.6765 17.2013 3.80631C16.3311 2.93613 15.1509 2.44727 13.9203 2.44727C12.6897 2.44727 11.5094 2.93613 10.6393 3.80631C9.76908 4.6765 9.28021 5.85672 9.28021 7.08734V9.27978H8.12019C7.19723 9.27978 6.31206 9.64642 5.65942 10.2991C5.00678 10.9517 4.64014 11.8369 4.64014 12.7598V22.04C4.64014 22.963 5.00678 23.8481 5.65942 24.5008C6.31206 25.1534 7.19723 25.52 8.12019 25.52H19.7204C20.6434 25.52 21.5285 25.1534 22.1812 24.5008C22.8338 23.8481 23.2004 22.963 23.2004 22.04V12.7598C23.2004 11.8369 22.8338 10.9517 22.1812 10.2991C21.5285 9.64642 20.6434 9.27978 19.7204 9.27978ZM11.6003 7.08734C11.5846 6.45547 11.82 5.84316 12.2548 5.38443C12.6896 4.9257 13.2885 4.65792 13.9203 4.6397C14.5521 4.65792 15.1509 4.9257 15.5857 5.38443C16.0206 5.84316 16.2559 6.45547 16.2403 7.08734V9.27978H11.6003V7.08734ZM20.8804 22.04C20.8804 22.3476 20.7582 22.6427 20.5406 22.8602C20.3231 23.0778 20.028 23.2 19.7204 23.2H8.12019C7.81254 23.2 7.51748 23.0778 7.29994 22.8602C7.08239 22.6427 6.96017 22.3476 6.96017 22.04V12.7598C6.96017 12.4522 7.08239 12.1571 7.29994 11.9396C7.51748 11.722 7.81254 11.5998 8.12019 11.5998H19.7204C20.028 11.5998 20.3231 11.722 20.5406 11.9396C20.7582 12.1571 20.8804 12.4522 20.8804 12.7598V22.04Z" fill="#807E7F"/>
<path d="M13.9205 13.9204C13.2322 13.9204 12.5594 14.1245 11.9871 14.5069C11.4148 14.8893 10.9687 15.4328 10.7053 16.0687C10.4419 16.7046 10.373 17.4043 10.5073 18.0794C10.6416 18.7545 10.973 19.3745 11.4597 19.8612C11.9464 20.3479 12.5665 20.6794 13.2416 20.8137C13.9166 20.9479 14.6164 20.879 15.2522 20.6156C15.8881 20.3522 16.4317 19.9062 16.814 19.3339C17.1964 18.7616 17.4005 18.0888 17.4005 17.4005C17.4005 16.4775 17.0339 15.5923 16.3813 14.9397C15.7286 14.2871 14.8435 13.9204 13.9205 13.9204ZM13.9205 18.5605C13.6911 18.5605 13.4668 18.4925 13.276 18.365C13.0853 18.2375 12.9366 18.0564 12.8488 17.8444C12.761 17.6324 12.738 17.3992 12.7828 17.1742C12.8275 16.9491 12.938 16.7424 13.1002 16.5802C13.2625 16.418 13.4692 16.3075 13.6942 16.2627C13.9192 16.218 14.1524 16.241 14.3644 16.3287C14.5764 16.4165 14.7575 16.5652 14.885 16.756C15.0125 16.9468 15.0805 17.171 15.0805 17.4005C15.0805 17.7081 14.9583 18.0032 14.7407 18.2207C14.5232 18.4383 14.2281 18.5605 13.9205 18.5605Z" fill="#807E7F"/>
</svg>
