<svg width="33" height="33" viewBox="0 0 33 33" fill="none" xmlns="http://www.w3.org/2000/svg">
<path d="M16.0797 14.7399C17.1397 14.7399 18.176 14.4255 19.0575 13.8366C19.9389 13.2476 20.6259 12.4105 21.0316 11.4311C21.4373 10.4517 21.5434 9.374 21.3366 8.33428C21.1298 7.29455 20.6193 6.33951 19.8697 5.58991C19.1201 4.84031 18.165 4.32983 17.1253 4.12301C16.0856 3.9162 15.0079 4.02234 14.0285 4.42802C13.0491 4.8337 12.212 5.5207 11.623 6.40213C11.0341 7.28357 10.7197 8.31985 10.7197 9.37995C10.7197 10.8015 11.2844 12.1648 12.2896 13.17C13.2948 14.1752 14.6581 14.7399 16.0797 14.7399Z" fill="#807E7F"/>
<path d="M24.1199 28.1393C24.4753 28.1393 24.8162 27.9981 25.0675 27.7468C25.3188 27.4955 25.4599 27.1547 25.4599 26.7993C25.4599 24.3116 24.4717 21.9258 22.7126 20.1667C20.9536 18.4077 18.5678 17.4194 16.0801 17.4194C13.5924 17.4194 11.2066 18.4077 9.44749 20.1667C7.68843 21.9258 6.7002 24.3116 6.7002 26.7993C6.7002 27.1547 6.84137 27.4955 7.09267 27.7468C7.34396 27.9981 7.68479 28.1393 8.04018 28.1393H24.1199Z" fill="#807E7F"/>
</svg>
